<svg width="512" height="512" xmlns="http://www.w3.org/2000/svg" xmlns:svg="http://www.w3.org/2000/svg" class="fl-svgdocument">
 <g class="layer">
  <title>Layer 1</title>
  <g id="svg_2" transform="translate(22.2922 21.3498) scale(1.76262 1.94361) translate(-22.2922 -21.3498) translate(-129 -117) matrix(2.16215 0 0 1.91518 -269.96 -152.427)">
   <path d="m236,252c27.53,0 49.83,-22.31 49.83,-49.83c0,-24.23 -17.31,-44.38 -40.22,-48.87c3.14,-0.49 6.3,-0.96 9.59,-0.96c34.41,0 62.28,27.89 62.28,62.28c0,34.39 -27.88,62.28 -62.28,62.28c-28.77,0 -52.77,-19.62 -59.9,-46.15c9.02,12.82 23.85,21.24 40.71,21.24z" data-uid="o-1865ed23b0d04db882967dd7933bd253" fill="rgba(240, 237, 204, 1)" id="_1ArGqno9mah4Az63pvtnG"/>
   <path d="m297.69,200.45c0,1.34 -1.09,2.44 -2.44,2.44c-1.35,0 -2.44,-1.1 -2.44,-2.44c0,-1.35 1.09,-2.44 2.44,-2.44c1.35,0 2.44,1.09 2.44,2.44m-54.88,-34.67c0.19,0.48 0.39,0.94 0.61,1.41c5.18,11.28 14.62,19.03 25.52,27.29c1.7,1.29 3.46,2.69 5.16,4.21c-1.2,1.23 -2.34,2.49 -3.39,3.72c-5.48,-6.11 -13.7,-9.52 -20.87,-11.89c-5.67,-1.87 -11.02,-3.74 -15.91,-6c0.01,-0.08 0.03,-0.14 0.05,-0.2c2.24,-8.35 6.35,-15.02 8.84,-18.54m49.37,58.49c-2.8,6.62 -5.71,13.46 -9.42,19.06c-5.9,8.86 -18.15,14.79 -31.98,15.46c-16,0.79 -36.11,-5.57 -45.87,-25.5c8.65,-0.79 16.09,-1.75 22.55,-2.92c2.5,1.74 5.26,3.32 8.26,4.75c0.28,0.13 0.55,0.19 0.84,0.19c0.73,0 1.43,-0.41 1.77,-1.11c0.46,-0.98 0.04,-2.14 -0.94,-2.6c-15.63,-7.4 -24.1,-19.41 -25.18,-35.67c-0.56,-8.63 1.16,-16.28 2.38,-20.41c0.34,0.39 0.68,0.76 1.04,1.14c8.55,9 19.99,13.28 32.98,17.59c8.99,2.97 19.76,7.65 23.21,17.49c0.36,1.03 1.48,1.55 2.49,1.2c1.01,-0.36 1.55,-1.48 1.2,-2.49c-0.63,-1.77 -1.43,-3.37 -2.38,-4.86c4.37,-5.17 9.72,-10.72 16.69,-11.88c3.61,-0.6 7.42,0.18 11.38,2.32c2.43,1.31 4.61,3.86 6.06,5.73c-6.57,2.47 -10.57,11.88 -15.09,22.52m19.81,-22.72c-0.13,-0.16 -0.35,-0.46 -0.55,-0.74c-1.45,-1.99 -4.49,-6.13 -8.36,-8.23c-4.75,-2.57 -9.42,-3.48 -13.88,-2.74c-4.75,0.8 -8.76,3.22 -12.22,6.17c-1.87,-1.68 -3.79,-3.22 -5.66,-4.63c-10.47,-7.95 -19.53,-15.36 -24.34,-25.82c-0.68,-1.48 -1.21,-2.94 -1.6,-4.37c-0.15,-0.53 -0.5,-0.98 -0.99,-1.23c-1.44,-0.74 -2.37,0.4 -2.97,1.16c-0.33,0.4 -0.85,1.06 -1.49,1.97c-2.72,3.77 -7.09,10.78 -9.58,19.66c-4.44,-2.37 -8.45,-5.18 -11.88,-8.8c-1.11,-1.18 -2.1,-2.39 -2.94,-3.61c-0.3,-0.46 -0.79,-0.76 -1.33,-0.84c-1.59,-0.24 -2.1,1.14 -2.43,2.05c-0.18,0.49 -0.45,1.29 -0.78,2.35c-1.67,5.46 -4.12,16.39 -1.93,28.21c1.87,10.1 6.64,18.47 14.22,25.03c-6.21,0.98 -13.28,1.8 -21.45,2.49c-0.63,0.05 -1.19,0.4 -1.51,0.93c-0.31,0.54 -0.36,1.2 -0.13,1.78c4.41,10.38 11.87,18.66 21.62,23.94c7.86,4.26 16.88,6.49 26.24,6.49c0.98,0 1.95,-0.03 2.93,-0.08c15.26,-0.75 28.36,-7.19 35.02,-17.22c3.92,-5.88 6.9,-12.9 9.77,-19.68c4.53,-10.68 8.81,-20.77 15,-20.77c1.08,0 1.95,-0.88 1.95,-1.95c0,-0.61 -0.29,-1.18 -0.74,-1.53" data-uid="o-99942c3f3ce34c3a843f8844e7b84cef" fill="rgba(2, 52, 63, 1)" fill-rule="evenodd" id="_obPdYigl_EDMWO4h68lwU" transform="matrix(1 0 0 1 0 0)"/>
  </g>
 </g>
</svg>